<svg xmlns="http://www.w3.org/2000/svg" xmlns:xlink="http://www.w3.org/1999/xlink" viewBox="0 0 3276 3531"><defs><style>.cls-1,.cls-4{fill:#0075d0;}.cls-2,.cls-5,.cls-6{opacity:0;}.cls-3,.cls-5{fill:#29abe2;}.cls-4{stroke:#fff;stroke-miterlimit:10;}.cls-6,.cls-8{fill:#fff;}.cls-7{fill:url(#Dégradé_sans_nom_63);}.cls-9{fill:#1796ff;}.cls-10{fill:#005ed0;}</style><linearGradient id="Dégradé_sans_nom_63" x1="1007.35" y1="1550.22" x2="2138.91" y2="418.66" gradientTransform="matrix(1.06, 0, 0, 1, -136.25, 2.06)" gradientUnits="userSpaceOnUse"><stop offset="0" stop-color="#4d4d4d"/><stop offset="0.17" stop-color="#fff"/><stop offset="0.2" stop-color="#fbfbfb"/><stop offset="0.24" stop-color="#efefef"/><stop offset="0.27" stop-color="#dbdbdb"/><stop offset="0.3" stop-color="#bebebe"/><stop offset="0.34" stop-color="#9a9a9a"/><stop offset="0.34" stop-color="#999"/><stop offset="0.39" stop-color="#adadad"/><stop offset="0.5" stop-color="#d0d0d0"/><stop offset="0.6" stop-color="#eaeaea"/><stop offset="0.69" stop-color="#fafafa"/><stop offset="0.77" stop-color="#fff"/><stop offset="0.91" stop-color="#aeaeae"/><stop offset="0.95" stop-color="#919191"/><stop offset="1" stop-color="#7d7d7c"/></linearGradient></defs><g id="Calque_3" data-name="Calque 3"><path class="cls-1" d="M148,2183.72c-5.83-11.68-3.07-18.18,11-20.24,115.53-21.5,256.5-98.88,333-119.38,57.29-15.73,93.26.07,121,41.23,6.84,9.94,6.48,20.24-10.64,21.59-99.11,23.24-189,71.85-269.23,106.41-34.32,96-71.8,232.05-108.59,370.87,35.31-16.08,70.29-27.72,94.64-35.24,67.88-19.83,103.52-5.41,127.84,33.69,7.17,11.34,9.24,19.55-8.59,24-74.07,18.45-172.13,63.3-244.16,101.63-20.64,86.72-38.87,171.41-51.6,243,60.71-37,146.43-78.74,202-95.49,66.53-19.51,106.28-6.1,131.62,31.29,7.2,11.32,7.89,19.88-8.59,24-77.13,17.79-217.77,90.68-289.44,130.41-24.35,13.34-39.42,17.11-61,.62-14-9.59-27.38-28.13-41.43-43.56-18.16-20.26-22.6-38.08-18.13-78.52,21.06-184.43,94.64-473.71,165.45-680.74C185.38,2234.14,163.44,2210.47,148,2183.72Z"/><path class="cls-1" d="M772.89,2385.68c37.11-3.5,83.9,41.21,70.86,104.27-10.86,53.32-44,146.71-54.85,209.21-12.5,69.84,6.68,119.14,45.15,107.25,43.86-13.24,79.1-97.94,101.37-184,3-11.11,10.58-13,18.14-5.68,10.57,10,14.6,35.48,7.27,70.65-14.13,67.95-68.6,140.19-131.43,155.84-92.06,22.94-130.46-38.81-122.53-140.86,9.3-115.06,76-253.59,54.35-257.41-11.92-1.64-67.17,44.34-117.6,137.43-46.62,85.24-68.37,201.09-89.57,314.51-1.9,10.83-7.33,16.77-19.51,9.46-27-16.26-42.46-50.4-38.62-108.86,4.66-73.63,50.54-245,93.66-362.69,4.62-13.81,13.56-14.88,22.76-5.66,23,23,31.07,60.11,28.89,102.07C677,2467.09,735.81,2389.16,772.89,2385.68Z"/><path class="cls-1" d="M1211.4,2774.5c-23.41,160-57.4,351.35-136.49,407.86-19.49,14.06-42,16.22-68.47-7.09-30.84-26.83-59.79-59.87-55.14-128.91,7.12-105.3,83.8-194.58,180.77-262.45,4.89-26.53,8.16-55,12.79-82.56-23.57,39.24-55.82,71.41-95.88,81.4-99.67,24.83-152.89-105.69-97.55-257.51,53.17-146.69,128.76-217.3,184-231.06,43.33-10.8,73.37,17.39,81.74,55.56,7.59-24.9,14.65-47.37,20.89-68.47,4.88-17.33,15.44-21.11,25.44-13.25,21.12,15.45,41.39,59.86,27.52,119.67-16.3,73.08-51.87,221.15-71.18,337.55,79.65-68.18,124.39-142.58,153.39-210.78,4.34-10.29,14.08-12.72,19-2.42,4.59,9.2,5.09,34.37-6,68.2C1360.37,2656.85,1293.18,2719.59,1211.4,2774.5ZM1018.65,3132c19.2,17.07,76.71-116.9,106.07-299.07C1004.44,2950.3,993.76,3110.56,1018.65,3132Zm146.77-786.59c-34.1,6.18-95.89,95.2-132,204.28-35.28,107.72-23.44,206,20.16,196.29,42.49-9.45,80.74-91.45,112.23-200.51C1204.36,2409.29,1197.38,2339.71,1165.42,2345.38Z"/><path class="cls-1" d="M1490.82,2640.44c53.09-8.62,109.45-105.51,130.93-199.43,4.06-16,15.7-20,23.83-5.93,9.72,16,11.33,40.89,5.9,69.85-7.07,36.27-63.74,145.87-150.92,165.29-75.27,16.46-128.3-25.53-132.54-148.71-6.88-198.45,67.74-425.24,149.59-567.58,11.93-21.39,26.56-27.33,45.24-17,38.41,20.33,54.9,58.78,54.59,112.93-.39,141.58-89.3,301.77-170,388.62C1430.54,2555.39,1441,2648.25,1490.82,2640.44ZM1575,2036.26c-16.26-5.15-66.44,135-106.64,292.3q-8.11,29.63-13,58.46C1573.73,2229.82,1591.2,2041.42,1575,2036.26Z"/><path class="cls-1" d="M1611.13,2477c7.38-85.81,47-231.43,73.07-297.73,6.5-15.43,13.25-20.57,24.37-13,20.56,13.28,40.82,57.7,28.33,118.33-10.87,53.32-38,138.3-47.25,198.13-10.34,69.29,2.34,111,36.46,100.18,48.2-14.31,90-100.62,103.83-183.45,3-11.12,10.84-11.92,17.33-4.32,13,15.16,15.39,38.71,9.15,69-15.75,75.27-72.65,137.75-133.3,152.87C1640.8,2637.58,1603,2573.39,1611.13,2477Zm171.08-342.87c-10.29,18.66-41.42,23-64.68-1.13-24.63-24.92-27.3-58.77-14.57-81.5s47.4-17.55,68.76,8.19C1792.81,2084.34,1792.55,2115.48,1782.21,2134.15Z"/><path class="cls-1" d="M1929.44,2161.88c-5.09-43.59.6-66.86,18.22-93.11,18.42-27.6,42.25-38.14,54.43-30.83,13.54,8.14,11.1,21.42,3.22,49.83-2.72,7.56-4.34,14.88-6.8,23.54,17.25,101.52,58.9,180.89,74.26,256.43,8.36,42.78,12.11,90.15-20.38,125.85,65.8-45.16,95.11-121.46,107.61-186.69,2.44-13.26,14.08-12.71,20.58-5.15,6.75,8.68,12.68,37.11,2.65,75.28-22.53,85-85.93,144.49-162,166.92-62.26,17.8-127,16.67-180.54-41.3-38.14-42.26-52.69-114.56-23.41-154.05,10.29-14.08,20-11.9,25.44,5.16,3.25,8.39,5.38,17.06,8.65,25.44C1880.59,2307.49,1911.8,2224.94,1929.44,2161.88Zm-53.79,273.38c31.91,58.77,74.37,95.36,107.42,75.61,46-27.57-12.6-193.56-38.51-279.13C1927.44,2297,1902.23,2366.52,1875.65,2435.26Z"/><path class="cls-1" d="M2518.45,2553.88C2413.3,2580.08,2354,2475,2378.37,2288c17.09-131.07,87.55-289.06,64.7-295.32-20-5.65-135.27,113.47-178.23,250.49-26.66,85.1-51.14,184.26-62.16,268.11-2.2,12.52-10.34,17.22-20,10.31-25.64-17.54-45.62-49.79-38.08-131.44,12.64-136.11,163.21-641.64,233.1-793.35,7.53-17.84,20.36-19.69,30.36-6.22,25.32,32.24,37.18,95.77,9.25,186.49-17.57,57.55-58.66,175.49-91.58,272.78,38.84-62.86,93.65-120.39,128.37-125.07,43.82-5.59,98.23,47.33,81.6,119.29-13.82,61.94-50.23,168.45-63.71,240.55C2453,2386,2461,2516,2525.35,2512.26c52.87-3.08,97.1-226.58,116-316.37,2.17-12.51,14.72-15.63,22.2-6.86,9.7,12.21,16.25,38.5,6.82,80.73C2653.06,2349.84,2592.3,2535.48,2518.45,2553.88Z"/><g class="cls-2"><path class="cls-3" d="M1218.67,461.33q-16.74,4.79-33.4,9.69l-16.62,5-16.57,5.18q-33.12,10.36-65.77,21.9c-43.53,15.39-86.5,32-128.69,50.26A1920.31,1920.31,0,0,0,713.87,679.33c-19.5,11.8-38.61,24.2-57.63,36.67-18.91,12.65-37.71,25.41-56.11,38.73Q544.81,794.5,492.62,838c-34.79,28.93-68.3,59.29-100.66,90.72s-63.53,64-93.43,97.61C179,1160.87,80.24,1312.57,3.4,1474c-2.43,5-4.78,10.11-7.12,15.18s-4.73,10.12-7,15.23l-6.9,15.26L-24.38,1535q-13.36,30.73-25.67,61.85t-23.51,62.61q-11.26,31.46-21.37,63.24t-19,63.77q-8.84,32-16.44,64.08c-2.52,10.69-4.91,21.37-7.21,32.17s-4.42,21.4-6.45,32.18q-6.09,32.33-10.89,65.17c-6.46,43.73-11.42,87.85-14.85,132.09q-2.55,33.18-4,66.43t-1.95,66.51q-.87,66.51,2.75,132.84,1.74,33.14,4.61,66.16t6.88,65.87q4,32.84,9.19,65.48t11.38,65q12.49,64.77,29.84,128.27T-72,2894.13c14.62,41.21,30.92,81.75,48.6,121.64a1656.7,1656.7,0,0,0,124.81,229.52Q137,3300.12,177.05,3352q39.84,51.91,83.55,100.66t91.09,93.7q47.26,45.1,98,86.41,25.33,20.64,51.5,40.28,13.08,9.79,26.34,19.37l6.63,4.8,6.66,4.74c4.44,3.17,8.91,6.28,13.39,9.4q53.68,37.41,110.29,70.62T780,3844.32q58.89,29.14,119.88,54.12c20.3,8.34,40.79,16.24,61.37,23.92q15.45,5.73,31,11.22t31.2,10.69q62.56,20.83,126.53,37.36c42.58,11,85.51,20.73,128.63,28.76s86.39,14.5,129.46,19.14c5.38.58,10.84,1.13,16.32,1.64s10.94,1.07,16.41,1.55l16.43,1.38c5.47.45,11,.8,16.43,1.21,21.92,1.52,43.86,2.77,65.81,3.46q65.83,2.22,131.72-.2A1803.14,1803.14,0,0,0,1933,4009.32q64.88-12.17,128.9-29T2188.66,3942q62.76-21.43,124.17-47.13,30.68-12.87,60.92-26.82t60.12-28.82q59.67-29.82,117.45-63.66,57.84-33.65,113.53-71.11T2774,3626.32q26.66-20.43,52.7-41.67,13-10.62,25.9-21.42c8.55-7.22,17.09-14.47,25.53-21.83q25.37-22,49.93-44.9,12.28-11.45,24.35-23.07T2976.3,3450q23.68-23.62,46.22-48.07c15-16.27,29.51-32.86,43.23-49.52q5.14-6.24,10.07-12.48c1.65-2.08,3.26-4.16,4.86-6.23l2.37-3.09,1.18-1.56,1.24-1.69,10-13.56,9.81-13.65q19.48-27.42,38-55.56,37-56.25,69.89-115.23T3274.47,3009q14.25-30.68,27.38-61.91t25.22-62.92c64.21-169.16,104.5-348.42,121-530.75a2047.89,2047.89,0,0,0,6.51-275c-2.07-45.94-5.78-91.86-11.53-137.56q-2.19-17.13-4.81-34.2t-5.76-34.05c-2.09-11.31-4.38-22.59-6.95-33.78s-5.39-22.32-8.73-33.22l11.38-4.2c4.12,11.1,7.63,22.3,10.88,33.56s6.19,22.58,8.94,33.94c5.48,22.72,10.16,45.6,14.28,68.56,8.21,45.92,14.24,92.19,18.53,138.6s6.85,93,7.76,139.57.22,93.22-2,139.77c-9.07,186.17-43.26,371.35-103.42,548a1879.52,1879.52,0,0,1-109.5,257.36q-32.16,62.17-68.91,121.84-18.36,29.79-37.82,58.91l-9.8,14.5-9.94,14.4c-6.69,9.67-13.68,19.16-20.79,28.47-14.25,18.64-29.12,36.7-44.36,54.43s-30.9,35.05-46.88,52.07q-48,51.06-99.48,98.51A2178.64,2178.64,0,0,1,2718.25,3780a2149.73,2149.73,0,0,1-238.19,146.85,2016.71,2016.71,0,0,1-255.81,113.66q-65.88,23.85-133.36,42.95t-136.17,33q-68.67,14-138.26,22.83-34.77,4.41-69.69,7.48c-23.27,2.07-46.58,3.75-69.91,4.9a1919.53,1919.53,0,0,1-280-6.26c-46.57-4.47-92.9-11-138.9-19.21s-91.69-18-137-29.44a2030.68,2030.68,0,0,1-266.25-86.85,1928.41,1928.41,0,0,1-251.44-123.5A1811.61,1811.61,0,0,1,373,3726.66a1774.61,1774.61,0,0,1-202.42-193.81Q124,3480.49,81.53,3424.58T1.16,3309.67A1742.91,1742.91,0,0,1-130.73,3062.4a1780.35,1780.35,0,0,1-90.77-265.07A1907.56,1907.56,0,0,1-271,2521.67a2064.61,2064.61,0,0,1,17.62-558.33q5.93-34.53,13.21-68.83t16.21-68.24c11.8-45.24,25.56-89.91,40.85-134s32.2-87.67,50.59-130.57q13.78-32.17,28.65-63.88T-73,1435a1982.64,1982.64,0,0,1,144.9-239.35c13.53-19,27.26-37.88,41.48-56.39s28.72-36.79,43.48-54.86q44.6-54,93-104.62T350.56,882.6c34.8-31.08,70.72-60.92,107.84-89.19s75.25-55.19,114.37-80.59c19.51-12.77,39.39-25,59.36-37,20.09-11.84,40.26-23.55,60.77-34.65A1869.14,1869.14,0,0,1,947.5,525.94a1933.14,1933.14,0,0,1,268.65-76.48Z"/></g><path class="cls-4" d="M1405.15,3160.27c1.22,7.29,1.8,14.67,2.46,22.74,22.39-20.79,43.31-58.34,54.75-95.68,2.62-8.6,9.13-10.39,14-1.66,5,9.38,3.47,24.61.05,40.84-4,17-30.49,61.64-67.88,82.22.64,68.65-16.14,147.05-41.25,192.12-17.83,31.59-34,37-56.71,23.15-18.89-11.12-43.09-33.61-45.27-91.11-6.27-150.78,103.41-430,158.45-552.26,4-8.85,12.69-9.62,16.66-2.12,11.72,21.18,14.53,50-5.81,103.1-19.59,49.59-52.71,132.09-76.79,207.63C1384.32,3093,1398.48,3116.46,1405.15,3160.27ZM1313.51,3397c17.8,16.76,52.11-83,58.72-177.36-19.54,1.25-34.23-5.14-44.84-19.7C1305.1,3294.19,1295.05,3380.31,1313.51,3397Zm57.42-245.9c-3.46-24.62-13.53-44-17.83-41.26-6.18,3.75-6.25,39.85-4.34,55.19,2.89,21.3,11.19,34.21,24.21,34.74A305.36,305.36,0,0,0,1370.93,3151.05Z"/><path class="cls-4" d="M1739.91,3122.14c-39.12,4.5-60.4-26.62-54.75-70,4.4-35.44,29.87-78,46.88-106.27-20.22,18.42-41.53,27.18-57.64,29.88-10.3,25-28.07,45.63-55.6,51.3-2.88,44.49-25.39,101.61-60.62,119.95-17.12,9.1-43.48,12.49-67.61-10.91-26.65-26.06-26.45-71.15-11.48-114.57,13.3-38,40.29-71.5,70.08-79.1,14.86-4,23.76-.37,36.62,11.45,14.72,13.59,29.82,14.15,33.48,51.34.43,2.52-.15,5.21.35,8.23,13.68-4.89,26.67-16.91,34-37.82-40-9.86-1.8-84.63,18.26-88.52,17.55-3.46,14.66,34.83,9.07,63.21,17.21-5.48,33.39-17,50.33-33.31,5.78-5.64,10.07-7.92,14.94-3.56,10.84,9.06,27.41,30.61,15.17,50.28-19.18,30.67-37.6,69-42.17,97.2-4.92,29.3,4.42,47.92,20.71,46.22,20.4-1.88,40.41-39.93,50.35-79.4,1.26-4.88,4.61-6.48,7.39-2.28,3.53,5.62,7.83,18.87,4,33C1793.18,3090.92,1767.86,3119,1739.91,3122.14Zm-196-140c-11.64,13.87-23,32.85-30.81,53.86-15.23,41.91-14.58,88.93.46,98.31s43.22-14,60.69-64.06c5.53-16.46,9.29-31.07,10.69-44.25C1563.47,3018.18,1547.49,3000.15,1543.93,2982.11Zm39.7-7.2c-4.8-16.27-15.2-10.39-14.76,4.57.61,12.84,7.25,24.67,18.17,31.12C1587.61,2995.48,1586.09,2983.31,1583.63,2974.91Z"/><path class="cls-4" d="M1940.57,3352.74c-.85,11.62-5.68,14.28-15.19,9.34-19.34-10.88-39.47-38.53-41.68-99.1-4-102,30.7-328.69,76.26-499.78-36,8.05-59.49-1.52-79.08-20.28-8.43-8.68-7-14.81,5.77-21.14C1970,2684,2033.91,2617.17,2102,2592.14c51.94-18.77,102.2-17.68,149.22,44.55,41.27,55,46.82,122.45,24.33,187.48-32.11,91.9-122.84,192.21-228.76,255.37,54.57,36,107.37,73.72,142.79,110.13,23.28,23.27,38.53,57,31.67,81.89-2.53,9.89-6.7,14.63-15.86,7.3-97.48-71.19-172.38-121.18-237.86-159.39C1957,3182.93,1947.76,3257.38,1940.57,3352.74ZM2018.71,2866c-12.12,58.33-24.17,109.81-36,169.17,211.81-122.86,280.53-310.39,227.41-374.1-41-50.52-127.1,35.81-189.25,76C2030.07,2765.92,2030.17,2805.61,2018.71,2866Z"/><path class="cls-4" d="M2362.66,3154.22c60.76-16.11,95.1-90.52,111-148,1.77-6.92,7.55-8.75,12.48-3.18,4.73,4.85,9,25.74,2,48.62-16.32,53.59-61.33,104.41-116.64,122.76C2280.33,3205,2220,3124.91,2237.31,3017s79-168.79,121.7-159.32c21.46,5.1,37.88,11.8,54.46,24,18.46,13.18,26.67,59,8.05,105.42-21.58,54.49-64,88.58-127.51,63.5C2292,3124.26,2323.74,3164.2,2362.66,3154.22Zm7.18-184.87c13.47-37.63,17.43-80.18,4.82-84.89-19-7.46-65.16,54.82-77.31,134.11-.78,5-1.58,10-1.87,14.08C2337.91,3043.79,2357.64,3003.4,2369.84,2969.35Z"/><path class="cls-4" d="M2896.53,3311.8c85.59-3,194.14-144.67,247-288.72,9.63-24.42,28.83-28.51,38.82-4.59,12.17,27.19,9.69,66.85-4.72,111.52-18.46,55.88-130,217.64-271.67,230.81-122.24,10.84-197.55-66.16-179.49-261.62,29-314.93,192.54-658.25,350.52-866.64,23.14-31.37,47.41-37.84,74.88-17.8,56.58,39.85,74.92,103.9,63.52,189.39C3186.3,2627.76,3013.59,2863,2868.57,2984,2818.4,3165.32,2816.26,3314.11,2896.53,3311.8ZM3151,2374.18c-24.63-11.42-132.08,200-227.23,440.35a950.69,950.69,0,0,0-32.33,89.75C3110.07,2679.73,3175.59,2385.6,3151,2374.18Z"/><path class="cls-4" d="M2659.7,2813.76q5.28-17.13,15.92-9.82c14.92,9.54,30.5,38.68,24.65,80.17-5.55,37.43-24.4,102.87-29.57,146.53-5.21,46.05,3.91,77.23,27.93,68,29.07-10.82,53.13-72.37,62.56-130,1.54-7.64,6.35-9.94,11.3-4.39s10.64,23.57,7.68,46.71c-6.14,45.55-38.92,99.57-79.23,110-39.57,10.18-67.05-6.45-77.8-40.3-13.66,36.83-37.61,73.77-72.17,84.74-67,21.27-109.68-65.85-77.58-172,31.33-103.48,78-153.95,114-165.38,31-9.84,52.92,9.36,60.4,37.9C2651.6,2845.66,2655.45,2827.79,2659.7,2813.76Zm-48.23,47.81c-23.72,5.17-61.43,68.66-80.69,145.31-18.51,74.06-7.76,140.4,20.57,132.2,29.74-8.65,52.57-66.62,69.16-141.65C2640.73,2903.81,2633.05,2857.09,2611.47,2861.57Z"/><path class="cls-5" d="M3162,1643s5.1,58.68-20.73,96.14c-37.17,53.93-112.33,93.94-191,87.9-9.69-.74-97.93-9-153.16-83.7-70-94.81-27.32-215.71-13.82-234.94C2966,1248,3521,1454,3488,2264c0,.75-85.1,404.22-70,317,54-312,23.25-666.74-91-827C3291.13,1703.69,3206.88,1621.75,3162,1643Z"/><path class="cls-6" d="M3043.15,1461.32c.06-3.82-145.69-57.63-214.89,51.76-20.67,32.67,7.76,73.59,10.36,68.05C2915.49,1417.8,3043.15,1461.32,3043.15,1461.32Z"/></g><g id="Calque_4" data-name="Calque 4"><path class="cls-1" d="M2757.12,245.59c-9.43-109.73-147.37-154.25-268.56-153.53-117.6.7-302.8,14.9-920.47,166.17-144.91,35.49-212.51,85-248.61,204.73-62,205.55-14.77,597.92,44.88,843.36,22,90.39,217.16,132.59,412.8,16.35,174.95-104,474.84,60.33,724.08-155.12C2653.8,1035.67,2786.1,582.76,2757.12,245.59Z"/><path class="cls-7" d="M2207.69,534.66c-8.54-107-131.46-150.52-239.41-150-104.74.53-269.68,14.14-819.64,160.77-129,34.41-189.18,82.6-221.18,199.2-55,200.25-12.4,582.69,41,822,19.69,88.13,193.6,129.5,367.7,16.46,155.7-101.08,554.3-85.91,644.75-150.25C2131.24,1325.9,2233.93,863.28,2207.69,534.66Z"/><path class="cls-8" d="M2449.08,1259.25c17-2.37,34-4.8,50.86-7.71s33.7-6.06,50.36-9.83,33.15-8.1,49.33-13.26q12.15-3.87,24-8.38c7.88-3.07,15.65-6.36,23.25-9.94s15-7.53,22.18-11.78a210.09,210.09,0,0,0,20.57-14,160.21,160.21,0,0,0,18.33-16.42c1.45-1.44,2.79-3,4.13-4.51l2-2.28c.66-.77,1.26-1.57,1.89-2.34s1.25-1.55,1.86-2.36l1.79-2.47c.59-.83,1.21-1.63,1.78-2.48l1.72-2.56c9.12-13.74,17-28.72,24.4-43.91s14.12-30.8,20.66-46.49c25.79-62.95,47-128,65.87-193.54q7-24.62,13.62-49.34T2860.31,766c4-16.59,7.94-33.19,11.66-49.84s7.25-33.35,10.6-50.07q10.14-50.16,18-100.71c1.37-8.42,2.56-16.85,3.82-25.28s2.39-16.88,3.45-25.33,2.1-16.91,3.12-25.36l1.4-12.7q.73-6.35,1.35-12.7c6.87-67.74,10-135.93,5.92-203.69l-.39-6.31-.28-2.85-.14-1.43-.22-1.42-.44-2.84c-.18-.95-.4-1.88-.59-2.83-.35-1.89-.91-3.74-1.4-5.62a100.87,100.87,0,0,0-9.24-21.65,136,136,0,0,0-13.75-19.9,202.43,202.43,0,0,0-16.82-18,300.59,300.59,0,0,0-39.29-31.08,448.78,448.78,0,0,0-43.64-25.78,641.26,641.26,0,0,0-94-39.5c-16.2-5.39-32.63-10.13-49.25-14.1a414.24,414.24,0,0,0-50.51-9.22c8.58.28,17.16,1,25.7,1.93s17.07,2.19,25.56,3.64c17,3,33.79,6.76,50.45,11.21a600.15,600.15,0,0,1,97.46,35.18,454.16,454.16,0,0,1,46,24.64,309,309,0,0,1,42.5,31.15,207.38,207.38,0,0,1,18.92,18.93,154.15,154.15,0,0,1,16.14,21.89A119.44,119.44,0,0,1,2934,231.6c.68,2.25,1.41,4.49,1.93,6.8.27,1.15.57,2.29.81,3.45l.64,3.5.32,1.75.22,1.77.43,3.54.57,6.51c.35,4.32.8,8.63,1.05,13l.88,13c.44,8.65.93,17.3,1.17,26q.83,26,.43,51.92c-.26,17.29-.77,34.59-1.78,51.84s-2.16,34.5-3.72,51.7-3.35,34.38-5.43,51.51c-1,8.57-2.16,17.12-3.27,25.68s-2.34,17.1-3.65,25.63c-5.12,34.12-11.18,68.09-17.94,101.91q-5.14,25.34-10.85,50.56c-3.83,16.81-7.78,33.59-12,50.31-8.45,33.42-17.49,66.69-27.44,99.7s-20.57,65.82-32.26,98.28c-5.84,16.24-11.86,32.41-18.22,48.47s-13,32-20,47.83-14.42,31.48-22.49,46.9-16.66,30.63-27.08,45.1l-2,2.71c-.66.9-1.38,1.78-2.07,2.67l-2.08,2.67c-.72.88-1.48,1.74-2.22,2.61s-1.48,1.75-2.25,2.58l-2.32,2.46c-1.55,1.63-3.09,3.28-4.74,4.8l-2.44,2.33c-.8.78-1.62,1.55-2.48,2.27-1.69,1.47-3.37,3-5.08,4.4l-5.24,4.16c-1.76,1.38-3.6,2.64-5.39,4a226.08,226.08,0,0,1-22.55,14q-11.65,6.24-23.76,11.34c-8.08,3.36-16.26,6.38-24.51,9.16s-16.58,5.21-25,7.38c-16.77,4.39-33.69,7.91-50.7,10.71s-34.07,5.06-51.17,6.84S2466.22,1258.3,2449.08,1259.25Z"/><path class="cls-9" d="M2919.06,256C2910.13,147.09,2677.78,39.48,2555,59c-6.25,1-138.35,20.24-149,23-42.48,11-38,17.41-31,18,83,7,331,24,324,190-35,831-213,894-515,997,56.41-4.59,387.42-8.92,526.39-118.55C2801.42,1096.66,2946.49,590.62,2919.06,256Z"/><path class="cls-8" d="M2484.52,1181.24a202.28,202.28,0,0,0,30.77-26.22,309.49,309.49,0,0,0,26.27-31c16.26-21.73,30.27-45.14,43-69.21s24-48.92,34.31-74.15,19.69-50.87,28.27-76.77c17.12-51.82,31.37-104.6,43.36-157.85s21.63-107,29.13-161,12.87-108.3,15.67-162.61,3.14-108.66-.24-162.54c-.44-6.73-.9-13.46-1.47-20.17l-.87-10.06-.48-5-.24-2.52-.12-1.25c0-.43-.09-.74-.14-1.11A103.05,103.05,0,0,0,2722.5,187c-9.59-20.48-26.57-37.55-47-50.74a215.24,215.24,0,0,0-32.92-17.21,294.77,294.77,0,0,0-36-12.45,403.73,403.73,0,0,0-76.47-13c-13-1-26-1.44-39.05-1.35l-4.88.08-5,.11-10.11.27c-6.74.19-13.46.48-20.18.77-13.43.65-26.84,1.59-40.26,2.66-6.71.59-13.41,1.17-20.12,1.88l-10.06,1-10.06,1.13c-53.68,6-107.32,15.19-160.89,25.06s-107.09,20.9-160.66,31.83L1887.88,190l-161.13,33.06-80.65,16.5-80.53,16.34c-26.25,5.53-52.15,11.94-77,20.43a349.11,349.11,0,0,0-36.38,14.55,250,250,0,0,0-33.83,18.91,208.18,208.18,0,0,0-30.16,24.27q-7,6.75-13.41,14.22t-12.18,15.53c-15.46,21.5-27.56,45.93-37.86,71.29h0a3.19,3.19,0,0,1-6.08-1.85c5.67-27.15,14.23-54.15,27.59-79.51a226.36,226.36,0,0,1,23.63-36.21,231.14,231.14,0,0,1,30.52-31.34,281.37,281.37,0,0,1,35.55-25.43,380.7,380.7,0,0,1,38.37-20.07c26.15-11.89,53-21.14,80-29.18,3.37-1,6.77-2,10.12-2.94l9.93-2.83,19.86-5.62c13.25-3.73,26.5-7.47,39.78-11.1l39.83-10.89,39.91-10.63q79.9-21,160.33-40.18c107.27-25.43,215.55-47.2,325.27-63,54.85-8,110.05-14.61,165.8-18.85,27.87-2.08,55.9-3.5,84-4,7-.11,14-.21,21-.22h10.49l5.26,0,5.42.08q21.69.41,43.25,2.6t43,6.35a413.76,413.76,0,0,1,42.43,10.51,343,343,0,0,1,41.44,15.54,257.72,257.72,0,0,1,39.42,22.08A193.49,193.49,0,0,1,2735.86,129a151.79,151.79,0,0,1,26,40.21,145.08,145.08,0,0,1,11.66,46.61l.13,1.46.09,1.31.18,2.62.34,5.25.6,10.49c.39,7,.66,14,.92,21,1.86,55.91-.12,111.59-4.71,166.93s-11.77,110.35-21.21,164.91-21.1,108.71-35,162.25-30.18,106.49-49.55,158.34c-9.68,25.92-20.13,51.57-31.57,76.79s-23.84,50-37.72,74.06-29.15,47.3-46.72,68.9a316.24,316.24,0,0,1-28.3,30.73,210.21,210.21,0,0,1-33,25.75,3.18,3.18,0,0,1-3.48-5.33Z"/><path class="cls-9" d="M2402.46,553C2393.77,453.61,2125,343,1881,374c-24.42,3.1,295,11,300.33,127.51C2210.5,1139.69,1994.6,1347.9,1961,1374c-112,87-304.47,105.73-306,108,112-10.11,460-11,544.34-96.47C2276.36,1307.49,2429.16,858.31,2402.46,553Z"/><path class="cls-8" d="M2001.18,1355a199.39,199.39,0,0,0,27.76-23.24,278.94,278.94,0,0,0,24-27.29,446.79,446.79,0,0,0,39.32-61.23c23.16-42.8,41.33-88.23,56.64-134.49a1351.55,1351.55,0,0,0,37.88-141.22q15.18-71.57,23.74-144.25c5.8-48.36,9.41-97,10.6-145.5q.93-36.42-.12-72.75c-.32-12.1-.92-24.18-1.6-36.25s-1.64-24.1-2.83-36.09l-.42-4.5-.21-2.24-.29-1.91-.54-3.81-.26-1.91-.43-1.86-.83-3.73c-.15-.62-.24-1.25-.43-1.86l-.56-1.81a68.81,68.81,0,0,0-2.42-7.18,95.36,95.36,0,0,0-15.28-26.17,123.16,123.16,0,0,0-23-21.5,177.42,177.42,0,0,0-28.33-16.67c-20.17-9.6-42.26-16.29-64.88-20.89a402.48,402.48,0,0,0-69.23-7.51l-8.73-.11-8.74.08-18.06.49c-6,.17-12,.55-18,.82-3,.16-6,.25-9,.48l-9,.64-9,.63-4.49.33-4.5.43-18,1.72c-6,.51-12,1.33-18,2l-18,2.12c-48,6.22-96,14.59-143.84,23.75-12,2.24-24,4.44-35.93,6.89l-35.92,7.08L1578.34,471c-23.95,5-47.94,9.79-71.92,14.69l-36,7.41-36,7.28L1290.31,530l-72.13,14.76-36.1,7.3L1164,555.65c-3,.59-6,1.2-8.9,1.81s-5.89,1.2-8.81,1.86c-23.4,5.12-46.52,11-68.65,18.87a319.11,319.11,0,0,0-32.34,13.41,227.73,227.73,0,0,0-30,17.33A190,190,0,0,0,988.58,631a204.32,204.32,0,0,0-22.64,26.87c-13.7,19.35-24.47,41.22-33.69,63.89v0a2.91,2.91,0,0,1-5.55-1.7c5.12-24.28,12.74-48.4,24.52-71.13A203.9,203.9,0,0,1,999,588a249,249,0,0,1,31.48-23.18,329.33,329.33,0,0,1,34.1-18.42c2.92-1.33,5.82-2.71,8.76-4l8.83-3.78,8.88-3.54c3-1.19,6-2.25,8.93-3.38,11.93-4.38,23.93-8.48,36-12.09,3-.95,6-1.79,9-2.69s6-1.78,9-2.6l17.77-5,35.57-9.94c23.72-6.58,47.45-13.13,71.29-19.33s47.63-12.55,71.51-18.58l35.87-8.9,35.89-8.81,36-8.4,36-8.23,9-2,9-1.92,18.11-3.84c12.06-2.59,24.15-5,36.23-7.56s24.25-4.7,36.37-7l18.21-3.43c6.07-1.13,12.13-2.29,18.24-3.32,24.38-4.18,48.72-8.47,73.25-12.06,24.46-3.8,49.09-7,73.69-10.27l37.06-4.29,37.21-3.65,18.69-1.47c6.23-.46,12.43-1.06,18.7-1.35l18.76-1.07,4.69-.26,4.7-.17,9.41-.35,9.4-.35c3.13-.14,6.27-.13,9.41-.2,6.27-.08,12.55-.26,18.81-.27h18.79l9.7.18,9.68.39q19.37,1,38.62,3.5c12.82,1.71,25.61,3.92,38.3,6.85,25.36,5.84,50.48,14.05,74.43,26.18A217,217,0,0,1,2197,421a164,164,0,0,1,29.81,29.6,135.62,135.62,0,0,1,20.62,37.82,107.83,107.83,0,0,1,3.15,10.38l.71,2.61c.23.87.36,1.76.55,2.64l1,5.3.5,2.65.32,2.67.6,5.32.29,2.66.16,2.36.31,4.68c.84,12.5,1.33,25,1.76,37.47s.55,25,.49,37.43q-.08,37.39-2.22,74.65-4.35,74.46-15.8,148T2209.8,972.92q-9,36-19.91,71.57c-3.6,11.84-7.42,23.63-11.37,35.36-2,5.85-4,11.73-6.12,17.55l-3.14,8.74-3.25,8.7c-17.43,46.36-37.71,91.81-63.1,134.53a456.9,456.9,0,0,1-42.95,60.89,285,285,0,0,1-25.85,27,205.2,205.2,0,0,1-29.78,22.67,2.9,2.9,0,0,1-3.17-4.86Z"/><path class="cls-9" d="M1061,2059c8.73,31.53-294-323.76,15-409.69,59.29-16.49,234.84-19.56,458.31-99.51,154.82-55.38,194.27-578.25,198.31-758.11,2-88.13-118.25-115.13-94.55-114,100.85,4.87,300.25,67.56,307.56,157.61,22.46,276.7-132.19,684.48-205.23,758.33-111.2,112.44-463.53,72.91-633.49,118.78C938.83,1757.78,995.06,1820.92,1061,2059Z"/><path class="cls-8" d="M1738.5,1602.5a17,17,0,0,1,.93-4.39c.47-1.42,1-2.83,1.57-4.21,1.12-2.78,2.37-5.51,3.65-8.22,2.56-5.42,5.25-10.78,8-16.12l16.47-31.94q16.47-31.93,32-64.29c20.69-43.16,39.68-87.13,56.43-131.92A1347.91,1347.91,0,0,0,1901,1204.87a1170.17,1170.17,0,0,0,27.45-140.37A1015.92,1015.92,0,0,0,1937.17,922q-.37-35.68-3.47-71.26-.37-4.44-.82-8.88l-.43-4.43c0-.37-.07-.76-.12-1.1l-.17-1c-.1-.66-.24-1.31-.37-2a64.13,64.13,0,0,0-5.31-15.1,84.93,84.93,0,0,0-8.6-13.84,116.79,116.79,0,0,0-11-12.56,195.31,195.31,0,0,0-26.18-21.78,321.75,321.75,0,0,0-29.47-18.35,555.59,555.59,0,0,0-63.62-29.9q-32.81-13.2-66.93-23.56c-5.68-1.74-11.38-3.43-17.11-5s-11.46-3.21-17.24-4.66c-11.56-2.94-23.21-5.61-35.07-7.87a259.8,259.8,0,0,1,36.26.73q9.06.79,18.08,1.93t18,2.79a480.66,480.66,0,0,1,70.52,18.19,416.8,416.8,0,0,1,67.13,29.48,284.43,284.43,0,0,1,31.21,20.1,186.42,186.42,0,0,1,28,25.26,132.36,132.36,0,0,1,11.72,15.28,97.26,97.26,0,0,1,9,17.42,75.35,75.35,0,0,1,4.76,19.3c.08.83.18,1.65.23,2.48l.08,1.25.09,1.14.39,4.51c.27,3,.5,6,.72,9q2.71,36.09,2.64,72.31A1009.14,1009.14,0,0,1,1939.34,1066a1144.55,1144.55,0,0,1-29.9,141.13,1345.14,1345.14,0,0,1-46,136.56c-17.73,44.63-37.66,88.33-59.26,131.15-10.79,21.42-22.07,42.57-33.54,63.61L1753.45,1570c-2.84,5.27-5.68,10.54-8.37,15.89-1.35,2.67-2.67,5.36-3.86,8.1-.61,1.37-1.17,2.75-1.67,4.16A16.75,16.75,0,0,0,1738.5,1602.5Z"/><path class="cls-10" d="M1772.61,804.06c-7.35-87.74-114.34-123.38-208.34-122.85-91.19.52-234.82,11.8-713.78,132.52-112.37,28.32-164.78,67.91-192.73,163.59-48,164.31-11.24,478,35.11,674.28,17.07,72.28,51.43,181.51,163.66,268.76,47.49,36.92,196.09,129.82,195.86,129.43-61.6-105.61-191.06-292.1-39.38-385,135.64-83,482.7-70.91,561.49-123.76C1705.45,1453.23,1795.21,1073.63,1772.61,804.06Z"/><path class="cls-8" d="M1802.11,803.24a99.29,99.29,0,0,0-8.66-32.48,103.39,103.39,0,0,0-19-27.7,135.86,135.86,0,0,0-26.22-21.34A191.09,191.09,0,0,0,1718,706.23a255,255,0,0,0-32.4-10.73,315.8,315.8,0,0,0-33.51-6.84,379,379,0,0,0-68.23-3.92c-23,.61-45.93,2.16-68.8,4.38-5.72.55-11.43,1.18-17.14,1.8s-11.42,1.33-17.12,2.1-11.4,1.48-17.1,2.31l-8.54,1.21-8.53,1.29c-45.51,7-90.79,15.68-135.91,25.25-22.57,4.73-45.09,9.77-67.59,14.85s-45,10.43-67.41,15.79q-67.37,16.11-134.53,33.09T906.82,820.89l-67.14,17.17c-21.73,5.61-43,11.91-63.12,19.78s-38.89,17.27-55,29.19a159,159,0,0,0-22.12,19.7,155.31,155.31,0,0,0-17.9,23.54C671,947.21,663,966.57,656.83,987.12a458.68,458.68,0,0,0-13.9,63.89c-3.25,21.91-5.56,44.19-7,66.64q-1.05,16.85-1.65,33.79t-.65,34q-.2,34,1.11,68.19t3.8,68.33c3.28,45.57,8.12,91.12,14.21,136.52s13.44,90.66,22.27,135.57q6.62,33.68,14.42,67a594.55,594.55,0,0,0,18.63,64.31,452.64,452.64,0,0,0,26.66,60.58q7.8,14.56,16.73,28.45c5.91,9.28,12.27,18.27,19,27,3.3,4.41,6.81,8.65,10.27,12.93,1.77,2.11,3.58,4.18,5.36,6.28.9,1,1.79,2.1,2.7,3.13l2.78,3c7.32,8.24,15.12,16,23.09,23.69l6.07,5.64c2,1.9,4.13,3.67,6.19,5.51,4.11,3.7,8.42,7.19,12.67,10.73,2.1,1.8,4.34,3.44,6.51,5.17s4.37,3.45,6.54,5.09c4.36,3.28,8.92,6.56,13.53,9.81,18.51,13,37.77,25.66,57.05,38.18s38.78,24.88,58.31,37.15,39.13,24.49,58.77,36.55l7.36,4.51,6.95,4.22c-49.64,51.76-14.08,13.82-25.3,25.14l-.55-.92-1.1-1.84-2.21-3.68-4.45-7.37-18.07-29.66c-12.06-19.9-24-40.1-35.19-60.87a646,646,0,0,1-30.7-64.38c-8.94-22.26-16.45-45.49-20.67-69.92a216.77,216.77,0,0,1-3.27-37.42,165.12,165.12,0,0,1,4.48-38.2,141.9,141.9,0,0,1,14.24-36.33,148.27,148.27,0,0,1,23.3-31,183.17,183.17,0,0,1,29.2-24.12,240.37,240.37,0,0,1,32.28-18.11c22.1-10.32,44.82-17.9,67.63-24.26s45.81-11.38,68.82-15.77c46-8.69,92.22-14.73,138.33-20.13,23.05-2.66,46.1-5.13,69.1-7.59s46-4.84,68.89-7.5,45.73-5.47,68.33-9.05c11.29-1.79,22.53-3.77,33.63-6.08a335,335,0,0,0,32.63-8.31,161.52,161.52,0,0,0,15.35-5.66c2.45-1.06,4.85-2.19,7.13-3.41s4.38-2.49,6.72-4a177.06,177.06,0,0,0,25.69-20.71c16.06-15.43,30.05-33.39,42.64-52.29a545.61,545.61,0,0,0,33.93-59.48c10.18-20.54,19.37-41.62,27.78-63A1115.93,1115.93,0,0,0,1765,1215.38a1357.92,1357.92,0,0,0,27-135.82,1322.2,1322.2,0,0,0,13.07-137.92A1053,1053,0,0,0,1802.11,803.24Zm5.2-.44c3.7,46.27,4,92.71,2.12,139s-6.19,92.51-12.41,138.45-14.47,91.61-24.89,136.83c-5.23,22.61-11,45.11-17.39,67.43s-13.44,44.5-21.3,66.41-16.47,43.58-26.18,64.83a561.37,561.37,0,0,1-32.91,62.09c-12.43,20-26.42,39.25-43.21,56.45a195.23,195.23,0,0,1-27.57,23.66l-1.9,1.31-1,.65-1,.66c-1.37.9-2.75,1.72-4.14,2.51-2.77,1.6-5.57,3-8.38,4.34a178.28,178.28,0,0,1-17,6.85,353.48,353.48,0,0,1-34.35,9.83c-11.48,2.74-23,5.07-34.48,7.2-23,4.23-46,7.73-69,10.91-46,6.39-92,11.74-137.7,17.87s-91.27,12.82-136,22c-22.37,4.63-44.55,9.88-66.21,16.28s-42.85,13.92-62.54,23.52a211.08,211.08,0,0,0-28,16.24,152.36,152.36,0,0,0-23.94,20.34,116.55,116.55,0,0,0-18,24.59,109.83,109.83,0,0,0-10.59,28.26,133.13,133.13,0,0,0-3.1,30.64,184.26,184.26,0,0,0,3.26,31.6c4,21.15,11,42.14,19.61,62.66a612.88,612.88,0,0,0,29.85,60.47c11,19.82,22.89,39.33,35.07,58.84l18.43,29.39,4.63,7.42,2.3,3.72,1.16,1.88.57.93c-11.08,11.71,25.63-24.89-24.7,26.5l-4.18-2.43-3.78-2.23-7.5-4.46q-29.92-17.85-59.6-36t-59.22-36.73c-19.68-12.44-39.27-25-58.79-38.32-4.89-3.35-9.77-6.77-14.69-10.38-2.47-1.82-4.82-3.65-7.23-5.48s-4.82-3.61-7.14-5.54c-4.69-3.8-9.42-7.54-14-11.53-2.28-2-4.62-3.9-6.84-5.94l-6.72-6.1c-8.84-8.25-17.49-16.73-25.67-25.68l-3.09-3.33c-1-1.13-2-2.28-3-3.41-2-2.28-4-4.54-6-6.85-3.87-4.66-7.79-9.29-11.49-14.1-7.49-9.55-14.64-19.37-21.29-29.52s-13-20.51-18.86-31.13a502.26,502.26,0,0,1-30.22-65.92,661.75,661.75,0,0,1-21.22-68.6q-8.68-34.14-16-68.41-14.8-68.6-25.5-137.9t-17.21-139.31c-4.19-46.68-6.83-93.6-7-140.8-.05-23.6.42-47.27,1.85-71q1-17.8,2.8-35.66t4.42-35.75c3.61-23.85,8.41-47.79,15.73-71.61a336,336,0,0,1,13-35.43A243.32,243.32,0,0,1,636,901.5a209.06,209.06,0,0,1,24.38-31.38A205.74,205.74,0,0,1,690.29,844a250.65,250.65,0,0,1,33.2-20,342.13,342.13,0,0,1,34.47-15c23.18-8.59,46.48-15,69.69-20.35L861.54,781c11.29-2.6,22.61-5.11,33.92-7.62q67.88-15.12,136.07-29c90.94-18.36,182.28-35.1,274.21-48.81q34.47-5.14,69.07-9.56t69.35-7.8q34.75-3.36,69.69-5.14c23.28-1.15,46.62-1.5,69.88-1.16a408.88,408.88,0,0,1,70,6.78c23,4.32,45.78,10.76,67.33,20.24a206.67,206.67,0,0,1,31,16.89,145.92,145.92,0,0,1,27,23,110.6,110.6,0,0,1,19.56,29.65A105,105,0,0,1,1807.31,802.8Z"/><path class="cls-8" d="M1128.92,1710.12c9.39-2.23,18.91-4,28.44-5.55s19.12-2.88,28.71-4.1,19.19-2.32,28.79-3.34,19.23-1.92,28.84-2.8c38.47-3.47,77-6.17,115.36-9.16s76.77-6,115-10,76.22-8.81,113.62-16c18.69-3.56,37.2-7.82,55.26-13.09,9-2.64,17.92-5.57,26.59-8.9a217.47,217.47,0,0,0,25.09-11.37,125.92,125.92,0,0,0,22.11-14.75,74,74,0,0,0,9-9,57.83,57.83,0,0,0,3.75-4.9l3.9-5.89c10.53-15.77,20.43-32.09,30.11-48.55,4.84-8.23,9.5-16.58,14.23-24.89s9.23-16.77,13.73-25.22c2.27-4.22,4.54-8.44,6.72-12.71l6.65-12.74c4.31-8.56,8.71-17.09,12.93-25.71,17.1-34.39,33-69.42,48.48-104.86A866,866,0,0,1,1830,1447c-7.14,18-14.89,35.84-23.12,53.42s-16.89,35-26.23,52.07c-2.28,4.3-4.68,8.53-7.06,12.78l-3.6,6.36-3.72,6.3-3.72,6.29-3.83,6.25-3.85,6.24c-1.3,2.07-2.65,4.12-4,6.17l-4.05,6.19a81.62,81.62,0,0,1-5,6.6,96.64,96.64,0,0,1-11.39,11.49,145,145,0,0,1-25.84,17.39A237.66,237.66,0,0,1,1677,1657c-9.34,3.55-18.78,6.62-28.27,9.36a585.65,585.65,0,0,1-57.38,13c-19.21,3.49-38.5,6.14-57.79,8.44s-38.6,4.07-57.9,5.61c-38.62,3-77.24,4.84-115.82,6.24s-77.13,2.22-115.64,3.36q-14.45.42-28.88,1c-9.62.35-19.24.73-28.86,1.24C1167.27,1706.31,1148.05,1707.55,1128.92,1710.12Z"/><path class="cls-8" d="M1941,1477.29c15.91-2.11,31.8-4.27,47.61-6.85s31.59-5.28,47.23-8.58c7.82-1.61,15.59-3.44,23.35-5.27s15.45-3.89,23.08-6.13a409.7,409.7,0,0,0,44.87-15.53c7.26-3.07,14.39-6.36,21.36-9.93s13.68-7.56,20.16-11.81a173.15,173.15,0,0,0,18.4-14c2.92-2.48,5.65-5.16,8.35-7.84l3.91-4.15c1.21-1.42,2.43-2.82,3.62-4.28a192.59,192.59,0,0,0,13.17-19c4.1-6.63,8-13.43,11.75-20.38,7.49-13.87,14.28-28.21,20.86-42.65s12.71-29.13,18.61-43.91,11.6-29.65,17-44.63q16.27-45,30.39-90.69t26.22-92c4-15.43,8-30.89,11.65-46.4s7.25-31.06,10.57-46.65q10.11-46.74,17.91-93.92T2394,748.1c1.68-15.82,3.13-31.67,4.2-47.53s2-31.73,2.4-47.6.6-31.75.28-47.61c-.18-7.92-.35-15.85-.77-23.76-.17-4-.35-7.92-.64-11.87l-.38-5.93-.19-3c-.07-1-.18-1.78-.27-2.67a73.15,73.15,0,0,0-5.46-20.65,99,99,0,0,0-10.87-19.27c-8.69-12.27-19.71-23.22-31.66-33.14a318.35,318.35,0,0,0-38.51-26.94,472.27,472.27,0,0,0-41.87-22.36q-21.49-10.23-43.86-18.74t-45.22-15.59q-22.89-7-46.32-12.3a428.24,428.24,0,0,0-47.32-8.11c8,.21,16,.77,24,1.6s16,1.85,23.94,3.06c15.9,2.51,31.69,5.76,47.36,9.54a613.39,613.39,0,0,1,92,30.13,475.81,475.81,0,0,1,43.93,21.11,324.06,324.06,0,0,1,41.29,26.66c13.1,10.05,25.43,21.51,35.75,35.12a116.64,116.64,0,0,1,13.39,22.16,89,89,0,0,1,7.47,25.49c.14,1.1.31,2.27.41,3.31l.27,3,.55,6.06c.4,4,.69,8.09,1,12.14.63,8.09,1,16.19,1.41,24.29.69,16.2.83,32.41.71,48.6s-.7,32.37-1.59,48.53-2.1,32.27-3.57,48.37-3.31,32.15-5.34,48.17-4.35,32-6.85,48c-5.09,31.88-11.11,63.59-17.86,95.14s-14.43,62.88-22.78,94-17.45,62.09-27.4,92.77-20.57,61.15-32.22,91.25-24.19,59.9-38.29,89.08c-7.05,14.58-14.51,29-22.68,43.12q-6.1,10.61-12.93,20.9a198.71,198.71,0,0,1-15,20c-1.4,1.6-2.87,3.18-4.32,4.75l-4.5,4.44c-3.09,2.86-6.21,5.7-9.49,8.29a177.76,177.76,0,0,1-20.46,14.33,247.12,247.12,0,0,1-21.85,11.6c-7.46,3.43-15,6.58-22.68,9.38a403.64,403.64,0,0,1-46.73,13.72c-15.77,3.67-31.64,6.62-47.59,9s-31.91,4.25-47.91,5.75S1957,1476.51,1941,1477.29Z"/></g></svg>